<?xml version="1.0" encoding="utf-8"?>
<!-- Generator: Adobe Illustrator 24.0.1, SVG Export Plug-In . SVG Version: 6.00 Build 0)  -->
<svg version="1.1" xmlns="http://www.w3.org/2000/svg" xmlns:xlink="http://www.w3.org/1999/xlink" x="0px" y="0px"
	 viewBox="0 0 1920 594" style="enable-background:new 0 0 1920 594;" xml:space="preserve">
<style type="text/css">
	.st0{fill:#E85B5A;}
	.st1{fill:#F9F2F2;}
</style>
<g id="Layer_3">
	<rect y="0.5" class="st0" width="1920" height="593"/>
</g>
<g id="Layer_2_1_">
	<g id="Layer_1-2">
		<path class="st1" d="M1095.6,219.7c-1-8.1-22.3-173.7-28.4-219.2h-23.8c10,71.2,27.8,203.2,30.3,222.2c2.9,23,4.1,42.7,3.6,58.8
			c-0.8,23.1-5.2,33.7-8.7,38.6c-6.8,9.4-18.2,10.8-31.5,10.4l0.6-80.9v-0.1c0-9.5-1.1-17.3-3.4-23.9c-2.4-6.8-6-12.1-10.8-15.9
			c-5.2-4.1-14.5-8.3-28.8-4.8c-15.1,3.7-27.7,14-34.7,28.3c-6.7,13.7-9.9,29.1-9.3,44.4c0.6,15.2,4.9,29.5,12.4,41.6
			c6.3,10,14.4,18,24.2,23.6c8.3,4.7,17.4,7.7,27.3,8.7l-0.6,460.5h22.2l0.6-459.4c6.1,0.2,13,0.1,20-1.3
			c12.7-2.5,22.7-8.6,29.6-18.2c7.8-10.8,12-27.4,12.9-50.9C1100,264.9,1098.7,243.9,1095.6,219.7L1095.6,219.7z M1014.9,329.3
			c-17.3-2.5-27.3-12.8-32.9-21.7c-11.4-18.3-12.2-43.6-2-64.6c4.1-8.4,11.4-14.4,20-16.5c1.9-0.5,3.6-0.7,5-0.7
			c2.1,0,3.7,0.5,4.8,1.4c1.7,1.3,5.6,6.2,5.7,22.3L1014.9,329.3z"/>
		<path class="st1" d="M937.9,299c-0.6,16.1-4,28.2-10.4,36.9c-6.9,9.5-17.2,14.5-29.7,14.5c-8.3,0-15.2-0.8-21-2.5
			c-6.7-2-12.1-5.1-16.4-9.5c-7.2-7.3-11-17.6-12.5-33.5c-1.2-12.9-0.9-29.1-0.5-49.6l-55.7,96.8c-3.8-9.3-6.8-18.9-9-28.9
			l66.7-115.9c2.5-4.4,7.6-6.5,12.5-5.2c4.8,1.3,8.2,5.7,8.2,10.7c0,15.8-0.3,29.8-0.5,42.2c-0.7,36-1.2,59.7,6.7,67.8
			c2.3,2.3,7,5.4,21.6,5.4c6.9,0,9.9-2.9,11.8-5.4c3.6-4.9,5.7-13.4,6.1-24.6c0.4-10.1-0.6-22.3-2.9-36.3
			c-4-24.3-10.7-45.5-10.8-45.7c-1.9-5.8,1.4-12.1,7.2-13.9c5.8-1.9,12.1,1.4,13.9,7.2c0.3,0.9,7.2,22.7,11.5,48.6
			C937.2,273.6,938.3,287.4,937.9,299L937.9,299z"/>
		<path class="st1" d="M821.8,239.4c0,8.3-6.8,15.1-15.1,15.1c-8.3,0-15.1-6.8-15.1-15.1s6.8-15.1,15.1-15.1
			C815,224.3,821.8,231.1,821.8,239.4z"/>
		<path class="st1" d="M898,375.6c0,8.3-6.8,15.1-15.1,15.1c-8.3,0-15.1-6.8-15.1-15.1c0-8.3,6.8-15.1,15.1-15.1
			C891.2,360.5,898,367.3,898,375.6z"/>
		<path class="st1" d="M838.5,211.4c0,8.3-6.8,15.1-15.1,15.1c-8.3,0-15.1-6.8-15.1-15.1c0-8.3,6.8-15.1,15.1-15.1
			C831.7,196.3,838.5,203,838.5,211.4z"/>
		<path class="st1" d="M909.5,164.7L909.5,164.7c-0.4-2.1-2.3-3.5-4.4-3.1l-16.5,3c-1.8,0.3-3.1,1.9-3.1,3.7c0,0.2,0,0.5,0.1,0.7
			c0.4,2,2.3,3.3,4.4,3l16.5-2.9C908.5,168.7,909.9,166.7,909.5,164.7L909.5,164.7z"/>
		<path class="st1" d="M1046.8,152.6c-1.6-1.7-3.6-2.5-6.1-2.5c-2.3,0-4.2,0.8-5.8,2.5c-1.6,1.7-2.3,3.7-2.3,6.2
			c0,2.3,0.8,4.4,2.3,6.2l-10.3,1.9c-1.5,0.3-2.5,1.6-2.5,3c0,0.2,0,0.3,0,0.5c0.3,1.7,1.9,2.8,3.6,2.5l14.2-2.5
			c2.7-0.4,5-1.7,6.7-3.8s2.6-4.6,2.6-7.5C1049.2,156.4,1048.4,154.3,1046.8,152.6L1046.8,152.6z M1041,163.5
			c-1.8-0.8-2.7-2.3-2.7-4.6s0.9-3.2,2.6-3.2s2.7,1.1,2.7,3.3S1042.8,162.8,1041,163.5z"/>
		<path class="st1" d="M930.1,377.3c0,8.3-6.8,15.1-15.1,15.1c-8.3,0-15.1-6.8-15.1-15.1c0-8.3,6.8-15.1,15.1-15.1
			C923.3,362.1,930.1,368.9,930.1,377.3z"/>
	</g>
</g>
</svg>
