<?xml version="1.0" encoding="UTF-8"?>
<svg id="Layer_2" data-name="Layer 2" xmlns="http://www.w3.org/2000/svg" viewBox="0 0 470.21 470.21">
  <defs>
    <style>
      .cls-1 {
        fill: #e85b5a;
      }

      .cls-1, .cls-2 {
        stroke-width: 0px;
      }

      .cls-2 {
        fill: #fff;
      }
    </style>
  </defs>
  <g id="Layer_2-2" data-name="Layer 2">
    <g>
      <path class="cls-1" d="M431.11,105.22c-11.28-16.99-24.72-32.43-39.91-45.93C349.68,22.4,295.01,0,235.11,0,105.26,0,0,105.26,0,235.11c0,16.96,1.8,33.5,5.21,49.44,2.94,13.76,7.1,27.08,12.33,39.84,35.16,85.57,119.32,145.83,217.57,145.83,31.49,0,61.53-6.19,88.99-17.42,10.63-4.35,20.88-9.46,30.67-15.26,69.11-40.94,115.45-116.27,115.45-202.42,0-48.02-14.4-92.68-39.11-129.89ZM61.32,109.49c11.48,0,20.82,9.34,20.82,20.83s-9.34,20.83-20.82,20.83-20.83-9.34-20.83-20.83,9.34-20.83,20.83-20.83ZM38.33,148.1c11.48,0,20.83,9.34,20.83,20.83s-9.34,20.83-20.83,20.83-20.83-9.34-20.83-20.83,9.34-20.83,20.83-20.83ZM143.35,377.55c-11.48,0-20.83-9.34-20.83-20.83s9.34-20.83,20.83-20.83,20.83,9.34,20.83,20.83-9.34,20.83-20.83,20.83ZM187.56,379.8c-11.49,0-20.83-9.34-20.83-20.83s9.34-20.83,20.83-20.83,20.83,9.34,20.83,20.83-9.34,20.83-20.83,20.83Z"/>
      <path class="cls-2" d="M436.54,141.81c-1.64-12.73-3.51-25.09-5.44-36.6-11.28-16.99-24.72-32.43-39.91-45.93,4.1,19.03,10.59,51.69,15.07,86.68,4.06,31.62,5.71,58.88,4.91,81.01-1.15,31.9-7.13,46.52-11.94,53.16-9.4,12.98-25.04,14.83-43.4,14.28l.83-111.46v-.12c0-13.11-1.53-23.89-4.67-32.94-3.24-9.34-8.22-16.7-14.82-21.86-7.24-5.67-20-11.42-39.72-6.57-20.77,5.11-38.19,19.34-47.79,39.05-9.22,18.94-13.64,40.12-12.79,61.26.85,20.91,6.78,40.72,17.15,57.31,8.64,13.82,19.88,24.76,33.4,32.51,11.42,6.55,24.05,10.56,37.64,11.97l-.96,129.2c10.63-4.35,20.88-9.46,30.67-15.26l.83-112.51c8.48.26,17.93.08,27.56-1.82,17.51-3.46,31.24-11.91,40.82-25.14,10.78-14.89,16.59-37.82,17.74-70.11.85-23.84-.89-52.82-5.18-86.14ZM325.28,292.84c-23.85-3.41-37.71-17.7-45.36-29.93-15.75-25.2-16.85-60.13-2.79-89,5.61-11.53,15.68-19.82,27.61-22.76,2.59-.64,4.9-.95,6.9-.95,2.82,0,5.06.63,6.67,1.9,2.34,1.83,7.78,8.49,7.79,30.69l-.81,110.05Z"/>
      <path class="cls-2" d="M219.13,251.13c-.84,22.18-5.52,38.82-14.32,50.87-9.55,13.09-23.7,20-40.91,20-11.48,0-20.94-1.13-28.93-3.46-9.25-2.7-16.66-6.98-22.66-13.1-9.87-10.07-15.19-24.3-17.26-46.15-1.68-17.77-1.26-40.13-.7-68.36L17.54,324.38c-5.24-12.76-9.39-26.07-12.33-39.84L97.11,124.84c3.45-6,10.51-8.93,17.19-7.14,6.69,1.79,11.34,7.84,11.34,14.76,0,21.78-.38,41.12-.72,58.18-.98,49.58-1.63,82.33,9.21,93.4,3.11,3.17,9.58,7.39,29.77,7.39,9.56,0,13.69-3.98,16.23-7.46,4.94-6.76,7.86-18.46,8.46-33.85.54-13.94-.79-30.76-3.96-49.99-5.52-33.53-14.78-62.73-14.88-63.03-2.56-8.04,1.87-16.63,9.9-19.2,8.04-2.57,16.63,1.86,19.2,9.9.4,1.26,9.96,31.32,15.86,66.99,3.53,21.33,5.01,40.28,4.41,56.32Z"/>
      <path class="cls-2" d="M59.15,168.93c0,11.48-9.34,20.83-20.83,20.83s-20.83-9.34-20.83-20.83,9.34-20.83,20.83-20.83,20.83,9.34,20.83,20.83Z"/>
      <path class="cls-2" d="M164.18,356.72c0,11.49-9.34,20.83-20.83,20.83s-20.83-9.34-20.83-20.83,9.34-20.83,20.83-20.83,20.83,9.34,20.83,20.83Z"/>
      <path class="cls-2" d="M82.14,130.31c0,11.49-9.34,20.83-20.82,20.83s-20.83-9.34-20.83-20.83,9.34-20.83,20.83-20.83,20.82,9.34,20.82,20.83Z"/>
      <path class="cls-2" d="M180.08,65.94l-.02-.09c-.51-2.83-3.21-4.71-6.04-4.2l-22.76,4.09c-2.52.45-4.29,2.64-4.29,5.11,0,.34.03.68.1,1.03.55,2.77,3.22,4.59,6,4.1l22.78-3.99c2.84-.5,4.74-3.21,4.22-6.05Z"/>
      <path class="cls-2" d="M369.23,49.26c-2.21-2.32-5.01-3.48-8.4-3.48-3.17,0-5.83,1.16-7.98,3.48-2.15,2.32-3.23,5.18-3.23,8.57,0,3.17,1.08,6,3.23,8.49l-14.27,2.64c-2.03.38-3.46,2.15-3.46,4.15,0,.23.02.45.05.69.38,2.33,2.59,3.89,4.92,3.48l19.54-3.49c3.73-.56,6.82-2.32,9.25-5.26,2.43-2.94,3.65-6.39,3.65-10.36,0-3.62-1.1-6.59-3.31-8.91ZM361.34,64.28c-2.49-1.13-3.73-3.23-3.73-6.28s1.19-4.41,3.57-4.41,3.73,1.53,3.73,4.58-1.19,5.21-3.57,6.11Z"/>
      <path class="cls-2" d="M208.39,358.97c0,11.49-9.34,20.83-20.83,20.83s-20.83-9.34-20.83-20.83,9.34-20.83,20.83-20.83,20.83,9.34,20.83,20.83Z"/>
    </g>
  </g>
</svg>